# xmcd
#
# Track frame offsets: 
#        150
#        31681
#        63200
#        94076
#        132307
#        165679
#        202074
#        227329
#
# Disc length: 4096 seconds
#
# Revision: 0
# Processed by: cddbd v1.5.2PL0 Copyright (c) Steve Scherf et al.
# Submitted via: ExactAudioCopy v1.3
#
DISCID=5f0ffe08
DTITLE=Black Cat Bone - Bone-ified
DYEAR=2005
DGENRE=Electric Blues
TTITLE0=Cross Road Blues
TTITLE1=Mr. Fiction
TTITLE2=Walking Blues
TTITLE3=Rambling On My Mind
TTITLE4=Misery
TTITLE5=Worried Life Blues
TTITLE6=Mad
TTITLE7=Hey Joe
EXTD=
EXTT0=
EXTT1=
EXTT2=
EXTT3=
EXTT4=
EXTT5=
EXTT6=
EXTT7=
PLAYORDER=
